PathFileType	4	(X/Y/Z)	SUBJ59_0_static_RCNL2025.trc
DataRate	CameraRate	NumFrames	NumMarkers	Units	OrigDataRate	OrigDataStartFrame	OrigNumFrames
100	100	13	25	mm	100	1	72
Frame#	Time	R_Shoulder			L_Shoulder			C7			J_Notch			R_Elbow			L_Elbow			R_Wrist			L_Wrist			R_Asis			L_Asis			Sacral			Thoracic			Sternum			R_Thigh_Lateral			R_Knee_Lateral			R_Shank_Lateral			R_Ankle_Lateral			R_Heel			R_Toe			L_Thigh_Lateral			L_Knee_Lateral			L_Shank_Lateral			L_Ankle_Lateral			L_Heel			L_Toe		
		X1	Y1	Z1	X2	Y2	Z2	X3	Y3	Z3	X4	Y4	Z4	X5	Y5	Z5	X6	Y6	Z6	X7	Y7	Z7	X8	Y8	Z8	X9	Y9	Z9	X10	Y10	Z10	X11	Y11	Z11	X12	Y12	Z12	X13	Y13	Z13	X14	Y14	Z14	X15	Y15	Z15	X16	Y16	Z16	X17	Y17	Z17	X18	Y18	Z18	X19	Y19	Z19	X20	Y20	Z20	X21	Y21	Z21	X22	Y22	Z22	X23	Y23	Z23	X24	Y24	Z24	X25	Y25	Z25
1	0.00000000	-245.822281	1457.915161	-16.641432	-258.088104	1488.727295	-419.392517	-355.276672	1557.544067	-209.476151	-192.553513	1465.927490	-223.593781	-285.224854	1141.275635	70.567101	-245.667206	1145.566040	-515.889282	-254.094398	863.831055	74.034075	-184.554939	887.399475	-485.608124	-179.047272	997.827515	-99.261261	-179.348251	995.268066	-328.013672	-395.002625	1032.150391	-218.060791	-411.516571	1340.998535	-235.663818	-131.238770	1275.034424	-233.754120	-291.398407	609.171326	-11.086530	-303.597076	517.966675	-63.186123	-345.549500	321.762024	18.965622	-375.451874	69.420738	-88.356293	-411.119354	57.336960	-135.531738	-211.990906	44.245907	-120.066544	-302.981415	612.037598	-402.686676	-307.059479	503.780457	-343.081543	-343.235199	309.051117	-404.674469	-372.715210	81.920387	-322.121521	-413.673431	58.677914	-266.918671	-209.844650	39.168488	-295.388885
2	0.01000000	-245.827637	1457.937134	-16.653307	-258.178864	1488.785278	-419.416016	-355.430756	1557.619995	-209.406036	-192.645493	1465.981201	-223.486740	-285.356598	1141.301147	70.665306	-245.673981	1145.555664	-515.929626	-253.827614	863.935699	74.158941	-184.625175	887.466156	-485.670090	-179.462036	997.748291	-99.499519	-179.478516	995.266541	-328.036072	-395.002625	1032.150391	-218.060791	-411.571655	1340.943970	-235.752304	-131.225708	1275.022949	-233.778458	-291.343872	608.997131	-11.268126	-303.743103	517.894043	-63.206642	-345.525452	321.765839	18.969675	-375.473572	69.427071	-88.320328	-411.119324	57.347839	-135.514847	-211.976334	44.225365	-120.081062	-303.000183	612.070679	-402.726868	-307.048401	503.908325	-343.081024	-343.188812	309.147980	-404.667236	-372.746490	81.905815	-322.194580	-413.659698	58.693172	-266.926483	-209.805496	39.193623	-295.459778
3	0.02000000	-245.817062	1457.890015	-16.640587	-258.215515	1488.823608	-419.376251	-355.405426	1557.655518	-209.343170	-192.644684	1465.956299	-223.500534	-285.346008	1141.405273	70.666069	-245.673798	1145.681030	-515.995605	-256.515068	862.827728	73.604549	-184.665749	887.467621	-485.651825	-179.721100	997.675903	-99.546928	-179.556641	995.263916	-327.977386	-395.079956	1032.186035	-217.994553	-411.668274	1341.033081	-235.664047	-131.216660	1275.073853	-233.812759	-291.334076	608.987549	-11.285300	-303.785278	517.877991	-63.243267	-345.479034	321.726715	18.922979	-375.497223	69.456650	-88.326180	-411.105011	57.360847	-135.539749	-211.970428	44.185211	-120.096138	-303.007294	612.030945	-402.720062	-307.040588	503.851196	-343.113098	-343.238281	309.160400	-404.652588	-372.753296	81.942612	-322.136139	-413.659210	58.693771	-266.926666	-209.739273	39.224277	-295.517609
4	0.03000000	-245.872147	1457.908447	-16.631586	-258.279114	1488.865967	-419.403625	-355.428192	1557.566284	-209.453690	-192.760651	1465.948853	-223.551834	-285.342316	1141.417358	70.676430	-245.745560	1145.695923	-515.986145	-256.950157	862.801300	73.677776	-184.691406	887.526978	-485.732941	-179.880341	997.657837	-99.489609	-179.414139	995.371765	-328.284546	-395.070740	1032.294189	-218.002640	-411.671570	1341.045532	-235.661652	-131.380844	1275.110352	-233.784225	-291.368896	609.058899	-11.241438	-303.751984	517.911499	-63.221096	-345.469086	321.837189	18.922007	-375.474945	69.429306	-88.339806	-411.055817	57.374126	-135.601639	-211.983582	44.235229	-120.078232	-303.007935	612.062561	-402.729828	-307.050323	503.864990	-343.110809	-343.245972	309.188141	-404.683868	-372.735046	81.939537	-322.190125	-413.630859	58.782955	-266.932281	-209.748856	39.201519	-295.529541
5	0.04000000	-245.891022	1457.922729	-16.621046	-258.356232	1488.904541	-419.332214	-355.535889	1557.596558	-209.441528	-192.765579	1466.013306	-223.539001	-285.371643	1141.318115	70.679253	-245.723358	1145.747681	-516.004333	-256.890160	862.830872	73.723465	-184.672554	887.557434	-485.831497	-179.858688	997.706787	-99.425453	-179.503326	995.286682	-328.024628	-395.153076	1032.213623	-218.061462	-411.663330	1341.018066	-235.677872	-131.448639	1275.104614	-233.730896	-291.395752	609.085327	-11.216019	-303.719818	517.867920	-63.182468	-345.559753	321.743988	18.949615	-375.484619	69.439232	-88.311348	-411.064362	57.377972	-135.587387	-211.991089	44.207630	-120.084648	-303.013458	612.036438	-402.719513	-307.044952	503.887817	-343.127777	-343.180542	309.104401	-404.683167	-372.756317	81.941910	-322.167206	-413.660522	58.699928	-266.923309	-209.738754	39.223152	-295.518005
6	0.05000000	-245.975449	1457.854858	-16.665649	-258.388367	1488.915405	-419.350281	-355.263123	1557.315796	-209.433990	-192.814178	1466.059937	-223.437469	-285.417480	1141.334839	70.717018	-245.736053	1145.753052	-515.948547	-256.722046	862.759033	73.628229	-184.616135	887.624603	-485.847763	-179.753723	997.779358	-99.466270	-179.577103	995.246704	-327.930786	-395.159332	1032.232178	-218.051315	-411.729889	1341.050293	-235.718552	-131.421463	1275.150146	-233.681473	-291.501190	609.088379	-11.159130	-303.928986	517.841248	-63.170300	-345.559387	321.736481	18.973557	-375.460602	69.453423	-88.326218	-411.098511	57.326916	-135.546524	-211.993881	44.221054	-120.065178	-303.017578	612.043457	-402.707001	-307.031799	503.957977	-343.086670	-343.188507	309.138550	-404.642456	-372.817139	81.964523	-322.112701	-413.722260	58.667313	-267.010040	-209.771851	39.163666	-295.480011
7	0.06000000	-246.058136	1457.888062	-16.589987	-258.481598	1488.961792	-419.253448	-355.637299	1557.663208	-209.392838	-192.814819	1466.063477	-223.446793	-285.486298	1141.330200	70.779526	-245.746506	1145.806030	-515.854004	-256.786430	862.769073	73.630749	-184.626335	887.619385	-485.819641	-179.653351	997.811035	-99.456444	-179.582840	995.246216	-327.936401	-395.249939	1032.263306	-217.980637	-411.816650	1341.020264	-235.687424	-131.386765	1275.185791	-233.723831	-291.563477	609.198608	-11.198294	-304.093201	517.845825	-63.184380	-345.512512	321.782654	18.821629	-375.485138	69.459908	-88.311928	-411.100739	57.323433	-135.543640	-212.007751	44.241810	-120.048866	-303.017151	612.084534	-402.690247	-307.023468	503.982483	-343.091461	-343.221466	309.103027	-404.642151	-372.766510	81.971886	-322.139862	-413.661407	58.716400	-266.918213	-209.793350	39.139282	-295.418488
8	0.07000000	-245.993301	1457.981812	-16.538717	-258.447052	1488.986572	-419.307861	-355.361511	1557.392334	-209.348282	-192.922379	1466.065430	-223.505554	-285.467072	1141.277466	70.746216	-245.804260	1145.892456	-515.938049	-256.860626	862.764954	73.675547	-184.708565	887.675751	-485.901001	-179.591370	997.824951	-99.435226	-179.560760	995.255798	-327.968994	-395.257812	1032.260986	-217.977615	-411.823334	1341.052124	-235.662231	-131.513657	1275.174072	-233.729797	-291.593597	609.224304	-11.185270	-304.084229	517.765503	-63.163227	-345.557709	321.764099	18.982100	-375.460876	69.478828	-88.301315	-411.116882	57.363377	-135.522598	-211.981781	44.222218	-120.070633	-303.016876	612.086914	-402.681427	-307.039978	503.901337	-343.113373	-343.238373	309.165375	-404.676697	-372.760986	81.963814	-322.148499	-413.654755	58.729755	-266.904449	-209.757187	39.261234	-295.501862
9	0.08000000	-245.975311	1457.979004	-16.552912	-258.502594	1489.008789	-419.286865	-355.313354	1557.388184	-209.354691	-193.021286	1466.043335	-223.402054	-285.438293	1141.432129	70.736923	-245.809113	1145.874146	-515.935730	-256.866371	862.806030	73.690331	-184.668358	887.733521	-485.973404	-179.714539	997.816162	-99.347893	-179.536789	995.330017	-327.927429	-395.309723	1032.227661	-218.070770	-411.925842	1341.120850	-235.588638	-131.564819	1275.244629	-233.670242	-291.627655	609.213135	-11.186710	-303.965454	517.874939	-63.165035	-345.564789	321.750702	18.958996	-375.464996	69.446716	-88.330536	-411.117859	57.366913	-135.523102	-211.935532	44.231155	-120.017746	-303.021912	612.073242	-402.701019	-307.038574	503.909760	-343.077332	-343.175262	309.152710	-404.685944	-372.748901	81.931084	-322.151093	-413.631165	58.786400	-266.929657	-209.747849	39.259663	-295.498932
10	0.09000000	-245.974609	1457.956299	-16.543329	-258.542908	1488.962891	-419.292572	-355.388885	1557.256348	-209.431046	-193.028107	1466.045166	-223.416229	-285.505463	1141.335205	70.766022	-245.818222	1145.861938	-515.925415	-256.908646	862.784729	73.736155	-184.720078	887.699036	-486.006424	-179.801697	997.798340	-99.308983	-179.591919	995.339539	-327.860626	-395.311005	1032.224731	-218.077606	-411.952454	1341.005127	-235.561691	-131.561142	1275.305542	-233.657547	-291.571899	609.109863	-11.227268	-303.878815	517.905701	-63.163265	-345.600494	321.808960	18.975294	-375.453796	69.410027	-88.350014	-411.118103	57.352505	-135.527756	-211.958679	44.186867	-120.105385	-303.016357	612.065735	-402.710175	-307.042236	503.921661	-343.098541	-343.196167	309.089355	-404.678375	-372.757294	81.916962	-322.151398	-413.658936	58.700897	-266.925385	-209.773865	39.267044	-295.501770
11	0.10000000	-246.098221	1457.916992	-16.444387	-258.597504	1488.979370	-419.230042	-355.779236	1557.571899	-209.286240	-193.007416	1466.085205	-223.414230	-285.518555	1141.338867	70.774040	-245.836197	1145.895264	-516.032776	-256.971931	862.804199	73.767166	-184.833855	887.678436	-485.994522	-179.837036	997.795959	-99.317993	-179.732132	995.327454	-327.874115	-395.277679	1032.090454	-218.094040	-411.946930	1340.995239	-235.565521	-131.567062	1275.305420	-233.635742	-291.613525	609.042847	-11.214623	-303.863434	517.907227	-63.158661	-345.698212	321.699524	18.952053	-375.467407	69.414528	-88.340302	-411.100220	57.312462	-135.550797	-211.980438	44.231060	-120.074722	-303.031433	612.084290	-402.697845	-307.042664	503.923889	-343.103333	-343.192719	309.047211	-404.684631	-372.812073	81.903297	-322.147736	-413.664032	58.655613	-266.944458	-209.848206	39.216850	-295.423584
12	0.11000000	-246.139359	1457.929199	-16.474974	-258.623047	1488.969727	-419.202545	-355.462128	1557.293091	-209.280273	-193.070557	1466.086182	-223.340515	-285.630615	1141.266479	70.840057	-245.837692	1145.880127	-515.958435	-257.038857	862.776520	73.741892	-184.873909	887.736725	-486.067810	-179.916992	997.777222	-99.373314	-179.744751	995.335999	-327.910583	-395.404572	1032.083252	-218.146179	-411.945801	1340.971558	-235.576172	-131.636932	1275.367310	-233.565704	-291.648438	609.106628	-11.188248	-304.011505	517.825012	-63.126434	-345.582794	321.704803	18.837648	-375.501434	69.427071	-88.336617	-411.114563	57.347610	-135.530563	-211.926422	44.223217	-120.009659	-303.105347	612.013916	-402.639862	-307.146973	503.799835	-343.046814	-343.256989	309.068817	-404.676392	-372.793610	81.847572	-322.134491	-413.658966	58.687645	-266.929810	-209.808426	39.182598	-295.460022
13	0.12000000	-246.234055	1457.949341	-16.481352	-258.665100	1488.970459	-419.211517	-355.537903	1557.236084	-209.336166	-193.212860	1466.078857	-223.323471	-285.677429	1141.241455	70.861839	-245.952209	1145.885254	-516.006287	-257.059952	862.778107	73.762003	-184.889809	887.741333	-486.095398	-179.923569	997.773010	-99.354851	-179.726730	995.342407	-327.920135	-395.430511	1032.099487	-218.136108	-412.077759	1340.975464	-235.605087	-131.649506	1275.369385	-233.556793	-291.784790	609.158081	-11.164321	-303.989471	517.876526	-63.162998	-345.667084	321.677856	18.955767	-375.462616	69.437675	-88.329475	-411.157776	57.319836	-135.517685	-211.976501	44.189255	-120.079544	-303.085754	612.058655	-402.648102	-307.215973	503.838196	-343.103302	-343.244812	309.058929	-404.682861	-372.735077	81.852768	-322.220337	-413.659821	58.694889	-266.925476	-209.755203	39.220303	-295.494843
